<svg fill="#000000" xmlns="http://www.w3.org/2000/svg"  viewBox="0 0 100 100" width="100px" height="100px"><path fill="none" stroke="#000000" stroke-linejoin="round" stroke-miterlimit="10" stroke-width="2" d="M50,28	c-3.578-5.413-10.026-9-17-9c-11.046,0-20,8.954-20,20c0,23,37,43,37,43s37-20,37-43c0-11.046-8.954-20-20-20	C60.026,19,53.578,22.587,50,28z"/><path fill="none" stroke="#000000" stroke-linecap="round" stroke-miterlimit="10" d="M77.916,29.5	c-1.233-1.411-2.725-2.591-4.416-3.443"/><path fill="none" stroke="#000000" stroke-linecap="round" stroke-miterlimit="10" d="M80.409,33.5	c-0.287-0.698-0.638-1.362-1.026-2"/><path fill="none" stroke="#000000" stroke-linecap="round" stroke-miterlimit="10" d="M81.269,36.5	c-0.059-0.338-0.132-0.67-0.214-1"/><path fill="none" stroke="#000000" stroke-linecap="round" stroke-miterlimit="10" d="M71.5,25.224	C70.082,24.759,68.572,24.5,67,24.5c-4.992,0-9.748,2.503-12.412,6.533C53.57,32.573,51.847,33.5,50,33.5s-3.57-0.927-4.588-2.467	C42.748,27.003,37.992,24.5,33,24.5c-7.995,0-14.5,6.505-14.5,14.5c0,14.851,20.752,30.272,31.497,36.669	c7.202-4.298,18.9-12.661,25.83-22.169"/></svg>