<svg xmlns="http://www.w3.org/2000/svg"  viewBox="0 0 100 100" width="100px" height="100px"><path fill="#f27c7c" d="M50,28c-3.578-5.413-10.026-9-17-9c-11.046,0-20,8.954-20,20c0,23,37,43,37,43s37-20,37-43	c0-11.046-8.954-20-20-20C60.026,19,53.578,22.587,50,28z"/><path fill="#1f212b" d="M50,83c-0.164,0-0.327-0.04-0.476-0.12C47.992,82.051,12,62.328,12,39c0-11.58,9.42-21,21-21	c6.657,0,13.042,3.141,17,8.281C53.958,21.141,60.343,18,67,18c11.58,0,21,9.42,21,21c0,23.328-35.992,43.051-37.524,43.88	C50.327,82.96,50.164,83,50,83z M33,20c-10.477,0-19,8.523-19,19c0,20.754,31.709,39.425,36,41.855C54.291,78.424,86,59.744,86,39	c0-10.477-8.523-19-19-19c-6.484,0-12.679,3.277-16.166,8.551c-0.37,0.561-1.298,0.561-1.668,0C45.679,23.277,39.484,20,33,20z"/><path fill="#1f212b" d="M77.916,30c-0.139,0-0.278-0.058-0.376-0.171c-1.218-1.395-2.653-2.513-4.264-3.326	c-0.247-0.124-0.346-0.425-0.221-0.671c0.124-0.247,0.423-0.347,0.671-0.221c1.727,0.871,3.264,2.069,4.567,3.561	c0.182,0.208,0.161,0.524-0.047,0.706C78.15,29.959,78.032,30,77.916,30z"/><path fill="#1f212b" d="M80.41,34c-0.196,0-0.383-0.117-0.462-0.31c-0.26-0.63-0.583-1.262-0.991-1.931	c-0.144-0.236-0.069-0.543,0.167-0.687c0.237-0.143,0.544-0.068,0.687,0.167c0.434,0.713,0.781,1.39,1.061,2.069	c0.105,0.255-0.017,0.547-0.272,0.653C80.538,33.988,80.473,34,80.41,34z"/><path fill="#1f212b" d="M81.269,37c-0.238,0-0.45-0.171-0.492-0.414c-0.057-0.326-0.127-0.647-0.207-0.965	c-0.066-0.268,0.097-0.539,0.365-0.606c0.265-0.064,0.539,0.097,0.606,0.365c0.085,0.341,0.16,0.685,0.221,1.035	c0.047,0.272-0.135,0.531-0.407,0.579C81.326,36.998,81.297,37,81.269,37z"/><path fill="#1f212b" d="M49.997,76.251l-0.256-0.152C46.492,74.165,18,56.689,18,39c0-8.271,6.729-15,15-15	c5.158,0,10.074,2.589,12.829,6.757C46.757,32.162,48.317,33,50,33s3.243-0.838,4.171-2.243C56.926,26.589,61.842,24,67,24	c1.572,0,3.139,0.252,4.656,0.749c0.262,0.086,0.405,0.368,0.319,0.631c-0.086,0.262-0.368,0.406-0.631,0.319	C69.928,25.235,68.466,25,67,25c-4.826,0-9.422,2.417-11.995,6.309C53.891,32.994,52.02,34,50,34s-3.891-1.006-5.005-2.691	C42.422,27.417,37.826,25,33,25c-7.72,0-14,6.28-14,14c0,16.748,26.794,33.554,30.997,36.086	c4.293-2.583,17.562-11.091,25.426-21.881c0.164-0.223,0.475-0.272,0.699-0.11c0.223,0.163,0.272,0.476,0.11,0.699	C68.092,64.962,54.29,73.69,50.254,76.098L49.997,76.251z"/></svg>